<svg xmlns="http://www.w3.org/2000/svg" viewBox="0 0 950 750" width="950" height="750"><style>tspan { white-space:pre }.shp0 { fill: #94ddff } .shp1 { fill: #64cbf8 } .shp2 { opacity: 0.569;fill: #ffffff } </style><path class="shp0" d="M1 54C1 54 -5.5 -1.05 56 1C117.5 3.05 266.5 -0.05 266 0C265.5 0.05 291.5 -0.55 316 37C340.5 74.55 356 74.95 372 74C388 73.05 897 74 897 74C897 74 925 71.95 937 91C949 110.05 949 131.95 949 156C949 180.05 949 668 949 668L949 720C949 720 951.25 741.97 926 742C900.75 742.03 29 743 29 743C29 743 2.25 749.47 2 719C1.75 688.53 1 53 1 53" /><path class="shp1" d="M449 119L900 119C900 119 948.33 113.59 948 170.41C947.67 227.22 949 702.6 949 702.6L949 719.73C949 719.73 954.2 746.32 913 746.95C871.8 747.57 30 748.96 30 748.96C30 748.96 0.83 751.8 1 708.64C1.17 665.49 1 172.42 1 172.42C1 172.42 -3 118.96 50 119C103 119.04 449 119 449 119Z" /><path class="shp2" d="M225.1 619.49C185.23 619.49 153 587.26 153 547.39C153 507.51 185.23 475.29 225.1 475.29C264.97 475.29 297.2 507.51 297.2 547.39C297.2 587.26 264.97 619.49 225.1 619.49Z" /><path class="shp2" d="M399.9 619.49C360.03 619.49 327.8 587.26 327.8 547.39C327.8 507.51 360.03 475.29 399.9 475.29C439.77 475.29 472 507.51 472 547.39C472 587.26 439.77 619.49 399.9 619.49Z" /><path class="shp2" d="M589.19 634.5L537.28 602.83L760.59 236.83L812.5 268.5L589.19 634.5Z" /></svg>