<svg xmlns="http://www.w3.org/2000/svg" viewBox="0 0 225 225" width="225" height="225"><style>tspan { white-space:pre }.shp0 { fill: #000000 } </style><path fill-rule="evenodd" class="shp0" d="M224.67 112.57C224.79 174.33 174.75 224.5 112.9 224.62C51.04 224.74 0.8 174.78 0.68 113.02C0.55 51.26 50.59 1.1 112.45 0.98C174.27 0.92 224.47 50.84 224.67 112.57ZM207.03 95.63L191.51 99.81C193.42 110.61 192.96 121.69 190.16 132.29L205.26 137.74C207.51 129.55 208.66 121.1 208.67 112.61C208.63 106.91 208.08 101.23 207.03 95.63ZM202.83 80.21C198 66.83 190.23 54.69 180.12 44.67L169.8 56.99C177.46 64.84 183.44 74.15 187.35 84.38L202.83 80.21ZM57.53 191.12C71.49 200.96 87.83 206.88 104.86 208.25L104.83 192.28C91.56 190.99 78.82 186.38 67.8 178.87L57.53 191.12ZM120.86 208.22C135.06 207.01 148.81 202.64 161.09 195.42L151.88 182.35C142.33 187.76 131.76 191.13 120.83 192.25L120.86 208.22ZM176.67 112.67C176.6 77.38 147.89 48.83 112.54 48.9C77.19 48.97 48.6 77.63 48.67 112.93C48.75 148.22 77.45 176.77 112.8 176.7C148.13 176.59 176.7 147.94 176.67 112.67ZM167.81 34.47C153.85 24.64 137.51 18.72 120.48 17.35L120.51 33.32C133.78 34.62 146.52 39.23 157.55 46.72L167.81 34.47ZM104.48 17.38C90.28 18.58 76.53 22.96 64.26 30.18L73.46 43.25C83.01 37.84 93.58 34.47 104.51 33.35L104.48 17.38ZM25.5 72.85C25.5 72.85 25.51 72.84 25.51 72.84L25.49 72.84L25.5 72.85ZM40.6 78.3C45.37 68.44 52.11 59.64 60.4 52.47L51.15 39.32C40.22 48.47 31.46 59.91 25.51 72.84L40.6 78.3ZM33.83 125.79C31.92 114.99 32.39 103.9 35.18 93.31L20.08 87.85C17.83 96.05 16.68 104.5 16.68 112.99C16.72 118.69 17.26 124.37 18.31 129.97L33.83 125.79ZM22.51 145.39C27.35 158.77 35.11 170.91 45.22 180.93L55.55 168.6C47.88 160.76 41.9 151.45 37.99 141.21L22.51 145.39ZM174.2 186.29C185.13 177.14 193.88 165.69 199.84 152.76L184.73 147.3C179.96 157.17 173.23 165.96 164.93 173.13L174.2 186.29Z" /><path fill-rule="evenodd" class="shp0" d="M150.67 112.72C150.71 134.23 133.29 151.7 111.75 151.74C90.21 151.78 72.72 134.38 72.67 112.88C72.63 91.37 90.05 73.91 111.59 73.86C133.12 73.84 150.61 91.23 150.67 112.72ZM145.1 112.73C145.09 110.75 144.89 108.77 144.53 106.82L139.12 108.28C139.79 112.05 139.63 115.9 138.64 119.6L143.9 121.49C144.68 118.63 145.09 115.7 145.09 112.74L145.1 112.73ZM143.07 101.46C141.38 96.8 138.68 92.57 135.15 89.08L131.56 93.37C134.23 96.1 136.31 99.34 137.67 102.91L143.07 101.46ZM92.47 140.08C97.32 143.5 103.02 145.57 108.95 146.04L108.94 140.48C104.32 140.03 99.88 138.42 96.04 135.82L92.47 140.08ZM114.53 146.03C119.48 145.61 124.26 144.1 128.53 141.57L125.32 137.01C121.99 138.9 118.32 140.07 114.51 140.46L114.53 146.03ZM111.63 90.55C99.32 90.57 89.36 100.56 89.38 112.85C89.41 125.14 99.41 135.08 111.72 135.06C124.02 135.02 133.97 125.05 133.96 112.76C133.94 100.47 123.94 90.52 111.63 90.55ZM130.88 85.53C126.02 82.1 120.33 80.04 114.39 79.56L114.41 85.12C119.03 85.57 123.46 87.18 127.3 89.79L130.88 85.53ZM108.81 79.57C103.87 79.99 99.08 81.51 94.81 84.03L98.02 88.59C101.35 86.7 105.03 85.53 108.84 85.14L108.81 79.57ZM81.31 98.88L86.58 100.78C88.24 97.34 90.58 94.28 93.47 91.78L90.25 87.2C86.45 90.39 83.4 94.38 81.32 98.87L81.31 98.88ZM78.81 118.78L84.22 117.32C83.55 113.56 83.72 109.7 84.7 106.01L79.45 104.11C78.66 106.97 78.26 109.9 78.25 112.86C78.27 114.84 78.46 116.82 78.82 118.77L78.81 118.78ZM80.28 124.15C81.96 128.8 84.66 133.03 88.19 136.52L91.78 132.23C89.12 129.5 87.03 126.26 85.67 122.69L80.28 124.15ZM133.09 138.39C136.9 135.2 139.95 131.21 142.02 126.72L136.75 124.82C135.09 128.26 132.75 131.32 129.86 133.82L133.09 138.39Z" /></svg>