<svg xmlns="http://www.w3.org/2000/svg" viewBox="0 0 350 150" width="350" height="150"><defs><linearGradient id="grd1" gradientUnits="userSpaceOnUse"  x1="12" y1="75.87" x2="339" y2="75.87"><stop offset="0" stop-color="#000000"  /><stop offset="1" stop-color="#ffffff"  /></linearGradient><linearGradient id="grd2" gradientUnits="userSpaceOnUse"  x1="122" y1="50.5" x2="318" y2="50.5"><stop offset="0" stop-color="#000000"  /><stop offset="1" stop-color="#ffffff"  /></linearGradient><linearGradient id="grd3" gradientUnits="userSpaceOnUse"  x1="122" y1="71.5" x2="291" y2="71.5"><stop offset="0" stop-color="#000000"  /><stop offset="1" stop-color="#ffffff"  /></linearGradient><linearGradient id="grd4" gradientUnits="userSpaceOnUse"  x1="122" y1="96.5" x2="261" y2="96.5"><stop offset="0" stop-color="#000000"  /><stop offset="1" stop-color="#ffffff"  /></linearGradient></defs><style>tspan { white-space:pre }.shp0 { fill: none;stroke: url(#grd1);stroke-width: 4.4 } .shp1 { fill: none;stroke: url(#grd2);stroke-width: 4.4 } .shp2 { fill: none;stroke: url(#grd3);stroke-width: 4.4 } .shp3 { fill: none;stroke: url(#grd4);stroke-width: 4.4 } .shp4 { fill: none;stroke: #000000;stroke-width: 4.4 } </style><path class="shp0" d="M17 19L334 19C336.76 19 339 21.23 339 24L339 127.74C339 130.5 336.76 132.74 334 132.74L17 132.74C14.23 132.74 12 130.5 12 127.74L12 24C12 21.23 14.23 19 17 19Z" /><path class="shp1" d="M123.5 49L316.5 49C317.33 49 318 49.67 318 50.5L318 50.5C318 51.33 317.33 52 316.5 52L123.5 52C122.67 52 122 51.33 122 50.5L122 50.5C122 49.67 122.67 49 123.5 49Z" /><path class="shp2" d="M123.5 70L289.5 70C290.33 70 291 70.67 291 71.5L291 71.5C291 72.33 290.33 73 289.5 73L123.5 73C122.67 73 122 72.33 122 71.5L122 71.5C122 70.67 122.67 70 123.5 70Z" /><path class="shp3" d="M123.5 95L259.5 95C260.33 95 261 95.67 261 96.5L261 96.5C261 97.33 260.33 98 259.5 98L123.5 98C122.67 98 122 97.33 122 96.5L122 96.5C122 95.67 122.67 95 123.5 95Z" /><path class="shp4" d="M67 113C47.09 113 31 96.91 31 77C31 57.09 47.09 41 67 41C86.91 41 103 57.09 103 77C103 96.91 86.91 113 67 113Z" /></svg>