<?xml version="1.0" encoding="iso-8859-1"?>
<svg version="1.1" id="Capa_1" xmlns="http://www.w3.org/2000/svg" xmlns:xlink="http://www.w3.org/1999/xlink" x="0px" y="0px"
	 viewBox="0 0 512.007 512.007" style="enable-background:new 0 0 512.007 512.007;" xml:space="preserve">
<g>
	<g>
		<g>
			<path d="M246.611,441.837l48.625-44.771c2.396-2.208,3.656-5.385,3.406-8.646c-0.24-3.25-1.958-6.208-4.667-8.031l-42.26-28.573
				l27.219-59.99c1.75-3.865,1.042-8.396-1.792-11.542l-78.073-86.646l11.823-38.5c1.375-4.49-0.344-9.344-4.229-11.969
				l-40.594-27.438l45.573-62.823c3.063-4.229,2.615-10.052-1.063-13.771L174.923,3.159c-2.438-2.448-5.896-3.552-9.344-3.01
				L35.423,22.066c-11.49,1.938-21.438,8.156-28,17.542c-6.344,9.052-8.729,19.979-6.74,30.781l75.177,407.208
				c3.719,20.156,21.885,34.406,42.25,34.406c2.406,0,4.854-0.208,7.302-0.615L262.6,488.295c3.698-0.625,6.792-3.135,8.156-6.625
				c1.375-3.49,0.813-7.438-1.479-10.406L246.611,441.837z"/>
			<path d="M508.868,109.782L402.228,3.141c-1.931-1.938-4.6-3.138-7.555-3.138h-92.448c-3.938,0-7.552,2.167-9.406,5.635
				c-1.854,3.469-1.646,7.677,0.531,10.948l23.594,35.396l-57.813,57.813c-4.167,4.167-4.167,10.917,0,15.083l37.229,37.229
				l-17.896,35.792c-1.625,3.26-1.479,7.135,0.396,10.26l60.531,100.875l-38.927,58.385c-2.823,4.229-2.26,9.865,1.333,13.458
				l33.469,33.469l-53.177,35.448c-4.479,2.979-6.031,8.833-3.625,13.646l21.333,42.667c1.813,3.615,5.5,5.896,9.542,5.896h160
				c23.531,0,42.667-19.135,42.667-42.667v-352C512.007,114.382,510.806,111.713,508.868,109.782z M426.673,106.67
				c-11.76,0-21.333-9.573-21.333-21.333V36.42l70.25,70.25H426.673z"/>
		</g>
	</g>
</g>
</svg>
