<svg xmlns="http://www.w3.org/2000/svg" viewBox="0 0 180 120" class="rewards-svg-renderer" preserveAspectRatio="xMidYMid meet" focusable="false"><g clip-path="url(#animationMask_MSAf2p6q5X)"><g clip-path="url(#cp_8CXNyY6n)" transform="matrix(-0.313,0,0,0.313,189.4,-34.9)" opacity="1" style="display: block;"><g transform="matrix(1,0,0,1,-610,-193.143)" opacity="1" style="display: block;"><g opacity="1" transform="matrix(1,0,0,1,1052,643.143)"><path fill="rgb(56,56,56)" fill-opacity="1" d=" M-8,-8 C-8,-8 0,8 0,8 C0,8 8,8 8,8 C8,8 8,-8 8,-8 C8,-8 -8,-8 -8,-8z"></path></g><g opacity="1" transform="matrix(1,0,0,1,836,643.143)"><path fill="rgb(56,56,56)" fill-opacity="1" d=" M-8,-8 C-8,-8 0,8 0,8 C0,8 8,8 8,8 C8,8 8,-8 8,-8 C8,-8 -8,-8 -8,-8z"></path></g><g opacity="1" transform="matrix(1,0,0,1,964,643.143)"><path fill="rgb(31,31,31)" fill-opacity="1" d=" M-8,-8 C-8,-8 0,8 0,8 C0,8 8,8 8,8 C8,8 8,-8 8,-8 C8,-8 -8,-8 -8,-8z"></path></g><g opacity="1" transform="matrix(1,0,0,1,748,643.143)"><path fill="rgb(31,31,31)" fill-opacity="1" d=" M-8,-8 C-8,-8 0,8 0,8 C0,8 8,8 8,8 C8,8 8,-8 8,-8 C8,-8 -8,-8 -8,-8z"></path></g><g opacity="1" transform="matrix(1,0,0,1,796,491.143)"><path fill="url(#gr_CioRiPJxmi)" fill-opacity="1" d=" M64,-144 C64,-144 -56,-144 -56,-144 C-60.422000885009766,-144 -64,-140.4219970703125 -64,-136 C-64,-136 -64,136 -64,136 C-64,140.4219970703125 -60.422000885009766,144 -56,144 C-56,144 64,144 64,144"></path><g opacity="1" transform="matrix(1,0,0,1,0,0)"></g></g><g opacity="1" transform="matrix(1,0,0,1,972,491.143)"><path fill="rgb(167,167,167)" fill-opacity="1" d=" M144,-136 C144,-140.4219970703125 140.4219970703125,-144 136,-144 C136,-144 -136,-144 -136,-144 C-140.4219970703125,-144 -144,-140.4219970703125 -144,-136 C-144,-136 -144,136 -144,136 C-144,140.4219970703125 -140.4219970703125,144 -136,144 C-136,144 136,144 136,144 C140.4219970703125,144 144,140.4219970703125 144,136 C144,136 144,-136 144,-136z"></path><path fill="url(#gr_qgepdXt2tP)" fill-opacity="1" d=" M144,-136 C144,-140.4219970703125 140.4219970703125,-144 136,-144 C136,-144 -136,-144 -136,-144 C-140.4219970703125,-144 -144,-140.4219970703125 -144,-136 C-144,-136 -144,136 -144,136 C-144,140.4219970703125 -140.4219970703125,144 -136,144 C-136,144 136,144 136,144 C140.4219970703125,144 144,140.4219970703125 144,136 C144,136 144,-136 144,-136z" class="x-hidden-focus"></path></g><g opacity="1" transform="matrix(1,0,0,1,776,643.143)"><path fill="rgb(43,43,43)" fill-opacity="1" d=" M-28,-8 C-28,-8 -20,8 -20,8 C-20,8 20,8 20,8 C20,8 28,-8 28,-8 C28,-8 -28,-8 -28,-8z"></path><g opacity="1" transform="matrix(1,0,0,1,0,0)"></g></g><g opacity="1" transform="matrix(1,0,0,1,864,643.143)"><path fill="rgb(98,98,98)" fill-opacity="1" d=" M-28,-8 C-28,-8 -20,8 -20,8 C-20,8 20,8 20,8 C20,8 28,-8 28,-8 C28,-8 -28,-8 -28,-8z"></path><g opacity="1" transform="matrix(1,0,0,1,0,0)"></g></g><g opacity="1" transform="matrix(1,0,0,1,1080,643.143)"><path fill="rgb(98,98,98)" fill-opacity="1" d=" M-28,-8 C-28,-8 -20,8 -20,8 C-20,8 20,8 20,8 C20,8 28,-8 28,-8 C28,-8 -28,-8 -28,-8z"></path><g opacity="1" transform="matrix(1,0,0,1,0,0)"></g></g><g opacity="1" transform="matrix(1,0,0,1,992,643.143)"><path fill="rgb(43,43,43)" fill-opacity="1" d=" M-28,-8 C-28,-8 -20,8 -20,8 C-20,8 20,8 20,8 C20,8 28,-8 28,-8 C28,-8 -28,-8 -28,-8z"></path><g opacity="1" transform="matrix(1,0,0,1,0,0)"></g></g><g opacity="1" transform="matrix(1,0,0,1,864,637.143)"><path fill="rgb(56,56,56)" fill-opacity="1" d=" M-28,-2 C-28,-2 -26,2 -26,2 C-26,2 26,2 26,2 C26,2 28,-2 28,-2 C28,-2 -28,-2 -28,-2z"></path><g opacity="1" transform="matrix(1,0,0,1,0,0)"></g></g><g opacity="1" transform="matrix(1,0,0,1,776,637.143)"><path fill="rgb(31,31,31)" fill-opacity="1" d=" M-28,-2 C-28,-2 -26,2 -26,2 C-26,2 26,2 26,2 C26,2 28,-2 28,-2 C28,-2 -28,-2 -28,-2z"></path><g opacity="1" transform="matrix(1,0,0,1,0,0)"></g></g><g opacity="1" transform="matrix(1,0,0,1,992,637.143)"><path fill="rgb(31,31,31)" fill-opacity="1" d=" M-28,-2 C-28,-2 -26,2 -26,2 C-26,2 26,2 26,2 C26,2 28,-2 28,-2 C28,-2 -28,-2 -28,-2z"></path><g opacity="1" transform="matrix(1,0,0,1,0,0)"></g></g><g opacity="1" transform="matrix(1,0,0,1,1080,637.143)"><path fill="rgb(56,56,56)" fill-opacity="1" d=" M-28,-2 C-28,-2 -26,2 -26,2 C-26,2 26,2 26,2 C26,2 28,-2 28,-2 C28,-2 -28,-2 -28,-2z"></path><g opacity="1" transform="matrix(1,0,0,1,0,0)"></g></g></g><g transform="matrix(1,0,0,1,241.75,177.75)" opacity="1" style="display: block;"><g opacity="1" transform="matrix(1,0,0,1,120.25,120.25)"><path fill="rgb(31,31,31)" fill-opacity="1" d=" M120,-116 C120,-118.21099853515625 118.21099853515625,-120 116,-120 C116,-120 -116,-120 -116,-120 C-118.21099853515625,-120 -120,-118.21099853515625 -120,-116 C-120,-116 -120,116 -120,116 C-120,118.21099853515625 -118.21099853515625,120 -116,120 C-116,120 116,120 116,120 C118.21099853515625,120 120,118.21099853515625 120,116 C120,116 120,-116 120,-116z"></path><g opacity="1" transform="matrix(1,0,0,1,0,0)"></g></g><g opacity="1" transform="matrix(1,0,0,1,120.25,120.25)"><path fill="url(#gr_hH9evzrjpE)" fill-opacity="1" d=" M-116,116 C-116,116 116,116 116,116 C116,116 116,-116 116,-116 C116,-116 -116,-116 -116,-116 C-116,-116 -116,116 -116,116z"></path><g opacity="1" transform="matrix(1,0,0,1,0,0)"></g></g></g><g filter="url(#6tGoCPEe5z)" style="display: none;" transform="matrix(0.9828,0,0,1,246.7487,177.75)" opacity="0.008053999999995653"><g opacity="1" transform="matrix(1,0,0,1,120.25,120.25)"><path fill="url(#gr_GhU2BDt42T)" fill-opacity="1" d=" M-116,116 C-116,116 116,116 116,116 C116,116 116,-116 116,-116 C116,-116 -116,-116 -116,-116 C-116,-116 -116,116 -116,116z"></path></g></g><g transform="matrix(1,0,0,1,245.75,181.75)" opacity="1" style="display: block;"><g opacity="1" transform="matrix(1,0,0,1,116.25,116.25)"><path fill="rgb(117,117,117)" fill-opacity="1" d=" M-116,116 C-116,116 -99.36100006103516,116 -99.36100006103516,116 C-99.36100006103516,116 116,116 116,116 C116,116 116,-116 116,-116 C116,-116 -99.88400268554688,-116 -99.88400268554688,-116 C-99.88400268554688,-116 -116,-116 -116,-116 C-116,-116 -116,116 -116,116z"></path></g></g><g transform="matrix(1,0,0,1,245.75,181.75)" opacity="1" style="display: block;"><g opacity="1" transform="matrix(1,0,0,1,116.25,116.25)"><path fill="rgb(167,167,167)" fill-opacity="1" d=" M-116,116 C-116,116 116,116 116,116 C116,116 116,-116 116,-116 C116,-116 -116,-116 -116,-116 C-116,-116 -116,116 -116,116z"></path><path fill="url(#gr_cpY4dPCLc7)" fill-opacity="1" d=" M-116,116 C-116,116 116,116 116,116 C116,116 116,-116 116,-116 C116,-116 -116,-116 -116,-116 C-116,-116 -116,116 -116,116z"></path></g><g opacity="1" transform="matrix(1,0,0,1,216.25,180.25)"><path fill="rgb(117,117,117)" fill-opacity="1" d=" M4,-16 C4,-16 -4,-16 -4,-16 C-4,-16 -4,16 -4,16 C-4,16 4,16 4,16 C4,16 4,-16 4,-16z"></path></g><g opacity="1" transform="matrix(1,0,0,1,228.25,180.25)"><path fill="rgb(242,242,242)" fill-opacity="1" d=" M27.035999298095703,-16.09000015258789 C27.035999298095703,-16.09000015258789 -8,-16 -8,-16 C-8,-16 -8,16 -8,16 C-8,16 26.19499969482422,15.817000389099121 26.19499969482422,15.817000389099121 C26.19499969482422,15.817000389099121 27.02400016784668,15.812000274658203 27.02400016784668,15.812000274658203 C27.02400016784668,15.812000274658203 27.035999298095703,-16.09000015258789 27.035999298095703,-16.09000015258789z"></path></g><g opacity="1" transform="matrix(1,0,0,1,216.25,20.25)"><path fill="rgb(117,117,117)" fill-opacity="1" d=" M4,-16 C4,-16 -4,-16 -4,-16 C-4,-16 -4,16.187999725341797 -4,16.187999725341797 C-4,16.187999725341797 4,16.187999725341797 4,16.187999725341797 C4,16.187999725341797 4,-16 4,-16z"></path></g><g opacity="1" transform="matrix(1,0,0,1,228.25,20.25)"><path fill="rgb(242,242,242)" fill-opacity="1" d=" M26.875,15.982999801635742 C26.875,15.982999801635742 -8,16.187999725341797 -8,16.187999725341797 C-8,16.187999725341797 -8,-16 -8,-16 C-8,-16 26.632999420166016,-16.259000778198242 26.632999420166016,-16.259000778198242 C26.632999420166016,-16.259000778198242 26.875,15.982999801635742 26.875,15.982999801635742z"></path></g><g opacity="1" transform="matrix(1,0,0,1,248.75,212.25)"><path fill="rgb(242,242,242)" fill-opacity="1" d=" M-6.76200008392334,12.467000007629395 C-6.76200008392334,12.467000007629395 6.690999984741211,12.406000137329102 6.690999984741211,12.406000137329102 C6.690999984741211,12.406000137329102 6.577000141143799,-16.297000885009766 6.577000141143799,-16.297000885009766 C6.577000141143799,-16.297000885009766 -6.949999809265137,-16.035999298095703 -6.949999809265137,-16.035999298095703 C-6.949999809265137,-16.035999298095703 -6.76200008392334,12.467000007629395 -6.76200008392334,12.467000007629395z"></path></g><g opacity="1" transform="matrix(1,0,0,1,237.66,212.25)"><path fill="rgb(117,117,117)" fill-opacity="1" d=" M4.781000137329102,-16 C4.781000137329102,-16 -1.5,-16 -1.5,-16 C-1.5,-16 -1.5,12.5 -1.5,12.5 C-1.5,12.5 4.781000137329102,12.5 4.781000137329102,12.5 C4.781000137329102,12.5 4.781000137329102,-16 4.781000137329102,-16z"></path></g><g opacity="1" transform="matrix(1,0,0,1,244.25,52.25)"><path fill="rgb(242,242,242)" fill-opacity="1" d=" M-6.007999897003174,16.023000717163086 C-6.007999897003174,16.023000717163086 10.96500015258789,15.758999824523926 10.96500015258789,15.758999824523926 C10.96500015258789,15.758999824523926 10.722999572753906,-16.29599952697754 10.722999572753906,-16.29599952697754 C10.722999572753906,-16.29599952697754 -4.5,-16 -4.5,-16 C-4.5,-16 -6.007999897003174,16.023000717163086 -6.007999897003174,16.023000717163086z"></path></g><g opacity="1" transform="matrix(1,0,0,1,235.75,52.25)"><path fill="rgb(117,117,117)" fill-opacity="1" d=" M5.811999797821045,-16 C5.811999797821045,-16 -0.625,-16 -0.625,-16 C-0.625,-16 -0.625,16 -0.625,16 C-0.625,16 5.811999797821045,16 5.811999797821045,16 C5.811999797821045,16 5.811999797821045,-16 5.811999797821045,-16z"></path></g></g><g transform="matrix(0.9,0,0,0.9,388.575,204.975)" opacity="1" style="display: block;"><g opacity="1" transform="matrix(1,0,0,1,18.25,32.25)"><path fill="rgb(31,31,31)" fill-opacity="1" d=" M18,32 C18,32 12.52299976348877,31.990999221801758 12.52299976348877,31.990999221801758 C-5.150000095367432,31.990999221801758 -19.476999282836914,17.663999557495117 -19.476999282836914,-0.008999999612569809 C-19.476999282836914,-17.68199920654297 -5.150000095367432,-32.00899887084961 12.52299976348877,-32.00899887084961 C12.52299976348877,-32.00899887084961 18,-32 18,-32 C18,-32 18,32 18,32z"></path><g opacity="1" transform="matrix(1,0,0,1,0,0)"></g></g></g><g transform="matrix(1,0,0,1,300.0004,299.9998)" opacity="1" style="display: block;"><g opacity="1" transform="matrix(1,0,0,1,120.315,-65.81)"><path fill="rgb(56,56,56)" fill-opacity="1" d=" M0,-28.565000534057617 C15.765024185180664,-28.565000534057617 28.565000534057617,-15.765024185180664 28.565000534057617,0 C28.565000534057617,15.765024185180664 15.765024185180664,28.565000534057617 0,28.565000534057617 C-15.765024185180664,28.565000534057617 -28.565000534057617,15.765024185180664 -28.565000534057617,0 C-28.565000534057617,-15.765024185180664 -15.765024185180664,-28.565000534057617 0,-28.565000534057617z"></path></g><g opacity="1" transform="matrix(1,0,0,1,0,0.25)"><path stroke-linecap="round" stroke-linejoin="miter" fill-opacity="0" stroke-miterlimit="4" stroke-dasharray="" stroke-dashoffset="0" stroke="rgb(255,255,255)" stroke-opacity="1" stroke-width="2" d=" M121,-84.625 C121,-84.625 121,-90.875 121,-90.875"></path><path stroke-linecap="round" stroke-linejoin="miter" fill-opacity="0" stroke-miterlimit="4" stroke-dasharray="" stroke-dashoffset="0" stroke="rgb(255,255,255)" stroke-opacity="1" stroke-width="2" d=" M121,-84.625 C121,-84.625 121,-90.875 121,-90.875"></path></g><g opacity="1" transform="matrix(1,0,0,1,0,0)"><path stroke-linecap="round" stroke-linejoin="miter" fill-opacity="0" stroke-miterlimit="4" stroke-dasharray="" stroke-dashoffset="0" stroke="rgb(255,255,255)" stroke-opacity="1" stroke-width="2" d=" M121,-48.625 C121,-48.625 121,-40.25 121,-40.25"></path></g><g opacity="1" transform="matrix(1,0,0,1,0,0)"><path stroke-linecap="round" stroke-linejoin="miter" fill-opacity="0" stroke-miterlimit="4" stroke-dasharray="" stroke-dashoffset="0" stroke="rgb(255,255,255)" stroke-opacity="1" stroke-width="2" d=" M112.5,-50.875 C112.5,-50.875 108.25,-43.625 108.25,-43.625"></path></g><g opacity="1" transform="matrix(1,0,0,1,0,0)"><path stroke-linecap="round" stroke-linejoin="miter" fill-opacity="0" stroke-miterlimit="4" stroke-dasharray="" stroke-dashoffset="0" stroke="rgb(255,255,255)" stroke-opacity="1" stroke-width="2" d=" M106,-57.5 C106,-57.5 98.5,-52.5 98.5,-52.5"></path></g><g opacity="1" transform="matrix(1,0,0,1,0,0)"><path stroke-linecap="round" stroke-linejoin="miter" fill-opacity="0" stroke-miterlimit="4" stroke-dasharray="" stroke-dashoffset="0" stroke="rgb(255,255,255)" stroke-opacity="1" stroke-width="2" d=" M103.625,-65.875 C103.625,-65.875 95.375,-65.875 95.375,-65.875"></path></g><g opacity="1" transform="matrix(1,0,0,1,0,0)"><path stroke-linecap="round" stroke-linejoin="miter" fill-opacity="0" stroke-miterlimit="4" stroke-dasharray="" stroke-dashoffset="0" stroke="rgb(255,255,255)" stroke-opacity="1" stroke-width="2" d=" M98.875,-79.125 C98.875,-79.125 106,-74.75 106,-74.75"></path></g><g opacity="1" transform="matrix(1,0,0,1,0,0)"><path stroke-linecap="round" stroke-linejoin="miter" fill-opacity="0" stroke-miterlimit="4" stroke-dasharray="" stroke-dashoffset="0" stroke="rgb(255,255,255)" stroke-opacity="1" stroke-width="2" d=" M108.25,-88.375 C108.25,-88.375 112.375,-81.375 112.375,-81.375"></path></g><g opacity="1" transform="matrix(1,0,0,1,0,0)"><path stroke-linecap="round" stroke-linejoin="miter" fill-opacity="0" stroke-miterlimit="4" stroke-dasharray="" stroke-dashoffset="0" stroke="rgb(255,255,255)" stroke-opacity="1" stroke-width="2" d=" M134.125,-88.125 C134.125,-88.125 130,-81.25 130,-81.25"></path></g><g opacity="1" transform="matrix(1,0,0,1,0,0)"><path stroke-linecap="round" stroke-linejoin="miter" fill-opacity="0" stroke-miterlimit="4" stroke-dasharray="" stroke-dashoffset="0" stroke="rgb(255,255,255)" stroke-opacity="1" stroke-width="2" d=" M136.5,-74.625 C136.5,-74.625 143.375,-79.125 143.375,-79.125"></path></g><g opacity="1" transform="matrix(1,0,0,1,0,0)"><path stroke-linecap="round" stroke-linejoin="miter" fill-opacity="0" stroke-miterlimit="4" stroke-dasharray="" stroke-dashoffset="0" stroke="rgb(255,255,255)" stroke-opacity="1" stroke-width="2" d=" M139.25,-66 C139.25,-66 146.75,-66 146.75,-66"></path></g><g opacity="1" transform="matrix(1,0,0,1,0,0)"><path stroke-linecap="round" stroke-linejoin="miter" fill-opacity="0" stroke-miterlimit="4" stroke-dasharray="" stroke-dashoffset="0" stroke="rgb(255,255,255)" stroke-opacity="1" stroke-width="2" d=" M136.75,-57 C136.75,-57 143.375,-52.875 143.375,-52.875"></path></g><g opacity="1" transform="matrix(1,0,0,1,0,0)"><path stroke-linecap="round" stroke-linejoin="miter" fill-opacity="0" stroke-miterlimit="4" stroke-dasharray="" stroke-dashoffset="0" stroke="rgb(255,255,255)" stroke-opacity="1" stroke-width="2" d=" M130.125,-50.375 C130.125,-50.375 134.125,-43.625 134.125,-43.625"></path></g></g><g transform="matrix(0.9,0,0,0.9,406.575,219.375)" opacity="1" style="display: block;"><g opacity="1" transform="matrix(1,0,0,1,16.25,16.25)"><path fill="rgb(43,43,43)" fill-opacity="1" d=" M16,0 C16,8.836000442504883 8.836999893188477,16 0,16 C-8.836999893188477,16 -16,8.836000442504883 -16,0 C-16,-8.836000442504883 -8.836999893188477,-16 0,-16 C8.836999893188477,-16 16,-8.836000442504883 16,0z"></path><g opacity="1" transform="matrix(1,0,0,1,0,0)"></g></g><g opacity="1" transform="matrix(1,0,0,1,24.25,16.25)"><path fill="rgb(31,31,31)" fill-opacity="1" d=" M12,0 C12,6.626999855041504 6.626999855041504,12 0,12 C-6.626999855041504,12 -12,6.626999855041504 -12,0 C-12,-6.626999855041504 -6.626999855041504,-12 0,-12 C6.626999855041504,-12 12,-6.626999855041504 12,0z"></path><g opacity="1" transform="matrix(1,0,0,1,0,0)"></g></g><g opacity="1" transform="matrix(1,0,0,1,24.25,16.25)"><path fill="rgb(204,204,204)" fill-opacity="1" d=" M8,0 C8,4.418000221252441 4.418000221252441,8 0,8 C-4.418000221252441,8 -8,4.418000221252441 -8,0 C-8,-4.418000221252441 -4.418000221252441,-8 0,-8 C4.418000221252441,-8 8,-4.418000221252441 8,0z"></path><g opacity="1" transform="matrix(1,0,0,1,0,0)"></g></g></g><g transform="matrix(1,0,0,1,289.913,289.75)" opacity="1" style="display: block;"><g opacity="1" transform="matrix(1,0,0,1,20.25,24.25)"><path fill="rgb(204,204,204)" fill-opacity="1" d=" M20,24 C20,24 4,24 4,24 C-9.255000114440918,24 -20,13.255000114440918 -20,0 C-20,-13.255000114440918 -9.255000114440918,-24 4,-24 C4,-24 20,-24 20,-24 C20,-24 20,24 20,24z"></path><g opacity="1" transform="matrix(1,0,0,1,0,0)"></g></g></g><g transform="matrix(1,0,0,1,255.789,267.898)" opacity="1" style="display: block;"><g opacity="1" transform="matrix(1,0,0,1,74.656,65.176)"><path fill="rgb(228,228,228)" fill-opacity="1" d=" M72.75,-61.073001861572266 C71.09300231933594,-63.94300079345703 67.42400360107422,-64.9260025024414 64.55400085449219,-63.26900100708008 C63.016998291015625,-62.38199996948242 62.027000427246094,-60.915000915527344 61.6879997253418,-59.30500030517578 C61.6879997253418,-59.30500030517578 18.496000289916992,-34.36800003051758 18.496000289916992,-34.36800003051758 C18.496000289916992,-34.36800003051758 18.493999481201172,-34.37099838256836 18.493999481201172,-34.37099838256836 C18.493999481201172,-34.37099838256836 18.496000289916992,-34.36800003051758 18.496000289916992,-34.36800003051758 C14.093999862670898,-39.68600082397461 7.441999912261963,-43.07400131225586 0,-43.07400131225586 C-7.381999969482422,-43.07400131225586 -13.982000350952148,-39.73899841308594 -18.385000228881836,-34.49599838256836 C-18.385000228881836,-34.49599838256836 -61.6879997253418,-59.30500030517578 -61.6879997253418,-59.30500030517578 C-62.027000427246094,-60.915000915527344 -63.016998291015625,-62.38199996948242 -64.55400085449219,-63.26900100708008 C-67.4229965209961,-64.9260025024414 -71.09300231933594,-63.94300079345703 -72.7490005493164,-61.073001861572266 C-74.40599822998047,-58.202999114990234 -73.4229965209961,-54.534000396728516 -70.55400085449219,-52.87699890136719 C-69.01699829101562,-51.9900016784668 -67.25199890136719,-51.86600112915039 -65.68800354003906,-52.37699890136719 C-65.68800354003906,-52.37699890136719 -22.709999084472656,-27.56399917602539 -22.709999084472656,-27.56399917602539 C-22.709999084472656,-27.56399917602539 -22.496999740600586,-27.444000244140625 -22.496999740600586,-27.444000244140625 C-23.466999053955078,-24.83799934387207 -24,-22.01799964904785 -24,-19.073999404907227 C-24,-7.185999870300293 -15.354999542236328,2.6760001182556152 -4.011000156402588,4.585999965667725 C-4.011000156402588,4.585999965667725 -4.2820000648498535,4.5879998207092285 -4.2820000648498535,4.5879998207092285 C-4.2820000648498535,4.5879998207092285 -4.2820000648498535,54.4630012512207 -4.2820000648498535,54.4630012512207 C-5.506999969482422,55.5620002746582 -6.2820000648498535,57.152000427246094 -6.2820000648498535,58.92599868774414 C-6.2820000648498535,62.2400016784668 -3.5959999561309814,64.9260025024414 -0.28200000524520874,64.9260025024414 C3.0320000648498535,64.9260025024414 5.7179999351501465,62.2400016784668 5.7179999351501465,58.92599868774414 C5.7179999351501465,57.152000427246094 4.942999839782715,55.5620002746582 3.7179999351501465,54.4630012512207 C3.7179999351501465,54.4630012512207 3.7179999351501465,4.638000011444092 3.7179999351501465,4.638000011444092 C3.7990000247955322,4.625 3.878999948501587,4.609000205993652 3.9590001106262207,4.59499979019165 C3.9590001106262207,4.59499979019165 4.004000186920166,4.59499979019165 4.004000186920166,4.59499979019165 C4.078999996185303,4.581999778747559 4.1529998779296875,4.564000129699707 4.229000091552734,4.546999931335449 C15.465999603271484,2.5490000247955322 24,-7.26200008392334 24,-19.073999404907227 C24,-22.017000198364258 23.468000411987305,-24.836000442504883 22.49799919128418,-27.44099998474121 C22.49799919128418,-27.44099998474121 65.68800354003906,-52.37699890136719 65.68800354003906,-52.37699890136719 C67.25199890136719,-51.86600112915039 69.01699829101562,-51.9900016784668 70.55400085449219,-52.87699890136719 C73.42400360107422,-54.534000396728516 74.40599822998047,-58.202999114990234 72.75,-61.073001861572266z"></path><g opacity="1" transform="matrix(1,0,0,1,0,0)"></g></g></g><g transform="matrix(1,0,0,1,313.913,297.75)" opacity="1" style="display: block;"><g opacity="1" transform="matrix(1,0,0,1,16.25,16.25)"><path fill="rgb(117,117,117)" fill-opacity="1" d=" M16,0 C16,8.836999893188477 8.836999893188477,16 0,16 C-8.836000442504883,16 -16,8.836999893188477 -16,0 C-16,-8.836999893188477 -8.836000442504883,-16 0,-16 C8.836999893188477,-16 16,-8.836999893188477 16,0z"></path><g opacity="1" transform="matrix(1,0,0,1,0,0)"></g></g><g opacity="1" transform="matrix(1,0,0,1,23.157,16.392)"><path fill="rgb(56,56,56)" fill-opacity="1" d=" M-6.820000171661377,-16 C-7.656000137329102,-16 -8.37600040435791,-15.645999908447266 -9.180000305175781,-15.52299976348877 C-1.5160000324249268,-14.34000015258789 4.460000038146973,-8 4.460000038146973,0 C4.460000038146973,8 -1.5160000324249268,14.34000015258789 -9.180000305175781,15.52299976348877 C-8.37600040435791,15.645999908447266 -7.656000137329102,16 -6.820000171661377,16 C2.0160000324249268,16 9.180000305175781,8.836000442504883 9.180000305175781,0 C9.180000305175781,-8.838000297546387 2.0160000324249268,-16 -6.820000171661377,-16z"></path><g opacity="1" transform="matrix(1,0,0,1,0,0)"></g></g></g></g></g><defs><clipPath id="animationMask_MSAf2p6q5X"><rect width="180" height="120" x="0" y="0"></rect></clipPath><clipPath id="cp_8CXNyY6n"><path d="M0,0 L600,0 L600,600 L0,600z"></path></clipPath><linearGradient id="gr_cpY4dPCLc7" spreadMethod="pad" gradientUnits="userSpaceOnUse" x1="-140.70700073242188" y1="0" x2="145.07400512695312" y2="0"><stop offset="0%" stop-color="rgb(168,168,168)"></stop><stop offset="50%" stop-color="rgb(201,201,201)"></stop><stop offset="100%" stop-color="rgb(234,234,234)"></stop></linearGradient><filter id="6tGoCPEe5z" filterUnits="objectBoundingBox" x="-100%" y="-100%" width="400%" height="400%"><feGaussianBlur in="SourceAlpha" result="drop_shadow_1" stdDeviation="12.5"></feGaussianBlur><feOffset dx="-20" dy="2.4492935982947065e-15" in="drop_shadow_1" result="drop_shadow_2"></feOffset><feFlood flood-color="#dbff38" flood-opacity="0.7" result="drop_shadow_3"></feFlood><feComposite in="drop_shadow_3" in2="drop_shadow_2" operator="in" result="drop_shadow_4"></feComposite><feMerge><feMergeNode></feMergeNode><feMergeNode in="SourceGraphic"></feMergeNode></feMerge></filter><linearGradient id="gr_GhU2BDt42T" spreadMethod="pad" gradientUnits="userSpaceOnUse" x1="-116.7229995727539" y1="0" x2="572.3610229492188" y2="0"><stop offset="0%" stop-color="rgb(196,217,73)"></stop><stop offset="50%" stop-color="rgb(151,176,37)"></stop><stop offset="100%" stop-color="rgb(106,135,0)"></stop></linearGradient><linearGradient id="gr_hH9evzrjpE" spreadMethod="pad" gradientUnits="userSpaceOnUse" x1="-116.7229995727539" y1="0" x2="-65.1989974975586" y2="0"><stop offset="0%" stop-color="rgb(175,196,58)"></stop><stop offset="50%" stop-color="rgb(114,131,29)"></stop><stop offset="100%" stop-color="rgb(53,67,0)"></stop></linearGradient><linearGradient id="gr_CioRiPJxmi" spreadMethod="pad" gradientUnits="userSpaceOnUse" x1="-65.96900177001953" y1="0" x2="30.913999557495117" y2="0"><stop offset="0%" stop-color="rgb(117,117,117)"></stop><stop offset="50%" stop-color="rgb(117,117,117)"></stop><stop offset="100%" stop-color="rgb(117,117,117)"></stop></linearGradient><linearGradient id="gr_qgepdXt2tP" spreadMethod="pad" gradientUnits="userSpaceOnUse" x1="-140.70700073242188" y1="0" x2="145.07400512695312" y2="0"><stop offset="0%" stop-color="rgb(168,168,168)"></stop><stop offset="50%" stop-color="rgb(194,194,194)"></stop><stop offset="100%" stop-color="rgb(220,220,220)"></stop></linearGradient></defs></svg>