<svg xmlns="http://www.w3.org/2000/svg" viewBox="0 0 32 32" width="32" height="32">
	<style>
		tspan { white-space:pre }
		.shp0 { fill: #1f7246 } 
		.shp1 { fill: #ffffff } 
		.txt2 { font-size: 25px;font-weight: 600;fill: #1f7246;font-family: Arial; } 
	</style>
	<path id="Publisher" class="shp0" d="M0,32h32v-32h-32z" />
	<path id="Shape 1" class="shp1" d="M6,24l11,2v-20l-11,2" />
	<path id="Shape 24" class="shp1" d="M18,11h2v0c0,0 1.03,-0.06 1,0c-0.03,0.06 3,0 3,0v2h-3h-1h-2v2h2v0h1h3v2h-3h-1h-2v2h2v0h1h3v2h-3h-1h-2v3h8v-16h-8z" />
	<path id="Shape 25" class="shp1" d="M20,21h1v-10h-1z" />
	<text id="X " style="transform: matrix(0.42,0,0,0.489,8,20.804)" >
		<tspan x="0" y="0" class="txt2">X</tspan>
	</text>
</svg>