<svg xmlns="http://www.w3.org/2000/svg" viewBox="0 0 32 32" width="32" height="32">
	<style>
		tspan { white-space:pre }
		.shp0 { fill: #d04626 } 
		.shp1 { fill: #ffffff } 
		.txt2 { font-size: 25px;font-weight: 600;fill: #d04626;font-family: Arial; } 
	</style>
	<g id="PowerPoint">
		<path id="Shape 10" class="shp0" d="M0,32h32v-32h-32z" />
	</g>
	<path id="Shape 1" class="shp1" d="M6,24l11,2v-20l-11,2" />
	<path id="Shape 12" class="shp1" d="M18,23h8v-14h-8z" />
	<text id="P " style="transform: matrix(0.44,0,0,0.480,8,20.804)" >
		<tspan x="0" y="0" class="txt2">P</tspan>
	</text>
	<path id="Shape 11" class="shp0" d="M18,17c0,0 0.65,0.38 2,0c1.35,-0.38 2,-3 2,-3c0,0 -2.91,-0.06 -3,0c-0.09,0.06 0,-3 0,-3h-1z" />
	<path id="Shape 13" class="shp0" d="null" />
	<path id="Shape 14" class="shp0" d="M18,21h4v-2h-4z" />
	<path id="Shape 15" class="shp0" d="M20,13c0,0 3.01,-0.06 3,0c-0.01,0.06 -0.33,-0.84 -1,-2c-0.67,-1.16 -2,-1 -2,-1z" />
</svg>