<svg xmlns="http://www.w3.org/2000/svg" viewBox="0 0 195 195" width="32" height="32">
	<style>
		tspan { white-space:pre }
		.shp0 { fill: #ffffff } 
		.shp1 { fill: #087366 } 
		.shp2 { fill: none } 
	</style>
	<g id="Layer_x0020_1">
		<path id="Shape 5" class="shp0" d="M0,195h195v-195h-195z" />
		<path id="Layer" class="shp1" d="M-0.75,-0.54h195.83l-0.03,195.84h-195.84zM112.55,135.98l32.83,0.19v7.68l-32.83,0.16v9.01l38.21,0.23c6.43,0 4.41,-5.31 4.41,-19.39v-71.99l-42.63,-0.19v9.78l32.83,0.19v23.82l-32.83,0.15v8.87l32.83,0.2v6.91l-32.83,0.15v8.11l32.83,0.19v7.68l-32.83,0.15zM159.02,67.04l0.23,52.81c3.09,0 6.15,0.01 9.23,0.06c4.48,0.04 5.69,0.44 5.69,-4.48v-70.65c0,-4.24 -0.06,-4.6 -4.21,-4.6c-9.87,0 -26.47,-0.41 -35.59,0.32c-0.73,4.92 5.09,6.6 13.69,11.58c2.47,1.44 5.59,2.98 8.23,4.83c3.83,2.68 2.76,4.88 2.73,10.13zM19.83,154.6l89.07,16.12v-147.46l-83.94,13.99c-5.7,0.87 -4.25,0.83 -5.12,2.15z" />
		<path id="Layer" class="shp1" d="M80.49,87.02c0,17.49 -9.83,17.66 -20.14,18.62l-0.26,17.29l-8.4,-0.39l0.1,-50.01c12.96,-0.61 28.71,-4.41 28.71,14.5zM60.38,96.51c6.41,0.36 10.04,-0.86 10.3,-7.26c0.29,-7.49 -3.06,-8.84 -10.2,-8.05z" />
		<path id="Layer" class="shp2" d="M60.38,96.51c6.41,0.36 10.04,-0.86 10.3,-7.26c0.29,-7.49 -3.06,-8.84 -10.2,-8.05z" />
	</g>
</svg>