<svg xmlns="http://www.w3.org/2000/svg" viewBox="0 0 32 32" width="32" height="32">
	<style>
		tspan { white-space:pre }
		.shp0 { fill: #087366 } 
		.shp1 { fill: #ffffff } 
		.txt2 { font-size: 25px;font-weight: 700;fill: #087366;font-family: Arial; } 
	</style>
	<path id="Publisher" class="shp0" d="M0,32h32v-32h-32z" />
	<path id="Shape 1" class="shp1" d="M6,24l11,2v-20l-11,2" />
	<text id="P " style="transform: matrix(0.44,0,0,0.480,8,20.804)" >
		<tspan x="0" y="0" class="txt2">P</tspan>
	</text>
	<path id="Shape 19" class="shp1" d="M18,11v2h3c0,0 -0.03,4.06 0,4c0.03,-0.06 -3,0 -3,0c0,0 -0.03,2.06 0,2c0.03,-0.06 3.04,-0.07 3,0c-0.04,0.07 0,2 0,2h-3v3h5c0,0 -0.03,-13.01 0,-13c0.03,0.01 -5,0 -5,0z" />
	<path id="Shape 20" class="shp1" d="null" />
	<path id="Shape 21" class="shp1" d="M20,8l4,3v9h2v-12z" />
</svg>