<svg xmlns="http://www.w3.org/2000/svg" viewBox="0 0 195 194" width="32" height="32">
	<style>
		tspan { white-space:pre }
		.shp0 { fill: #ffffff } 
		.shp1 { fill: #2b5797 } 
	</style>
	<g id="Layer_x0020_1">
		<path id="Shape 5" class="shp0" d="M0,194h195v-194h-195z" />
		<path id="Layer" class="shp1" d="M-0.8,-1.54h195.84l0.26,195.84h-196.1zM159.65,120.82h-47.37v9.17h47.37v6.11h-47.37l0.09,16.21h57.34c3.06,0.35 3.63,-1.23 3.58,-3.08v-106.48c0.12,-3.09 -0.51,-3.7 -3.58,-3.58h-57.34l-0.09,14.43h47.37v6.11h-47.37v9.17h47.37v6.11h-47.37v9.17h47.37v6.11h-47.37v9.16h47.37v6.11h-47.37v9.17h47.37zM108.78,169.21v-146.95l-88.53,15.15l-0.07,116.69z" />
		<path id="Layer" class="shp1" d="M81.71,68.62l-7.01,37.65l-7.26,-36.46l-9.83,0.57l-6.97,34.57l-5.89,-33.5l-8.68,0.1l9.03,48.5l9.11,0.49l7.49,-33.53l3.99,17c1.16,5.78 2.34,11.31 3.41,17.2l10.3,1.06l11.94,-54.02z" />
	</g>
</svg>