<svg xmlns="http://www.w3.org/2000/svg" viewBox="0 0 490 490" width="490" height="490">
	<defs>
		<filter id="flt1"> <feColorMatrix in="SourceGraphic" type="matrix" values="0 0 0 0 0.059   0 0 0 0 0.059   0 0 0 0 0.059   0 0 0 1 0" /> </filter>
		<filter id="flt2"> <feColorMatrix in="SourceGraphic" type="matrix" values="0 0 0 0 0.059   0 0 0 0 0.059   0 0 0 0 0.059   0 0 0 1 0" /> </filter>
		<filter id="flt3"> <feColorMatrix in="SourceGraphic" type="matrix" values="0 0 0 0 0.059   0 0 0 0 0.059   0 0 0 0 0.059   0 0 0 1 0" /> </filter>
		<filter id="flt4"> <feColorMatrix in="SourceGraphic" type="matrix" values="0 0 0 0 0.059   0 0 0 0 0.059   0 0 0 0 0.059   0 0 0 1 0" /> </filter>
		<filter id="flt5"> <feColorMatrix in="SourceGraphic" type="matrix" values="0 0 0 0 0.059   0 0 0 0 0.059   0 0 0 0 0.059   0 0 0 1 0" /> </filter>
		<filter id="flt6"> <feColorMatrix in="SourceGraphic" type="matrix" values="0 0 0 0 0.059   0 0 0 0 0.059   0 0 0 0 0.059   0 0 0 1 0" /> </filter>
	</defs>
	<style>
		tspan { white-space:pre }
		.shp0 { filter: url(#flt1);fill: #0f0f0f } 
		.shp1 { filter: url(#flt2);fill: #0f0f0f } 
		.shp2 { filter: url(#flt3);fill: #0f0f0f } 
		.shp3 { filter: url(#flt4);fill: #0f0f0f } 
		.shp4 { filter: url(#flt5);fill: #0f0f0f } 
		.shp5 { filter: url(#flt6);fill: #0f0f0f } 
	</style>
	<g id="Layer">
		<g id="Layer">
			<path id="Layer" class="shp0" d="M0,81.95c0,-29 23.6,-52.7 52.7,-52.7c29.1,0 52.7,23.8 52.7,52.8c0,29 -23.6,52.7 -52.7,52.7c-29,0 -52.7,-23.8 -52.7,-52.8zM24.5,81.95c0,15.5 12.7,28.2 28.2,28.2c15.5,0 28.2,-12.7 28.2,-28.2c0,-15.5 -12.6,-28.2 -28.2,-28.2c-15.5,0 -28.2,12.7 -28.2,28.2z" />
			<path id="Layer" class="shp1" d="M0,244.85c0,-29.1 23.6,-52.7 52.7,-52.7c29.1,0 52.7,23.7 52.7,52.7c0,29 -23.6,52.7 -52.7,52.7c-29,0 -52.7,-23.6 -52.7,-52.7zM24.5,244.85c0,15.6 12.7,28.2 28.2,28.2c15.5,0 28.2,-12.7 28.2,-28.2c0,-15.5 -12.6,-28.2 -28.2,-28.2c-15.5,0 -28.2,12.6 -28.2,28.2z" />
			<path id="Layer" class="shp2" d="M0,407.75c0,-29 23.7,-52.7 52.7,-52.7c29,0 52.7,23.6 52.7,52.7c0,29 -23.6,52.7 -52.7,52.7c-29,0 -52.7,-23.7 -52.7,-52.7zM24.5,407.65c0,15.5 12.7,28.2 28.2,28.2c15.5,0 28.2,-12.6 28.2,-28.2c0,-15.5 -12.6,-28.2 -28.2,-28.2c-15.5,0 -28.2,12.7 -28.2,28.2z" />
			<path id="Layer" class="shp3" d="M175.9,94.25h301.5c6.8,0 12.3,-5.5 12.3,-12.3c0,-6.8 -5.5,-12.3 -12.3,-12.3h-301.5c-6.8,0 -12.3,5.5 -12.3,12.3c0,6.8 5.5,12.3 12.3,12.3z" />
			<path id="Layer" class="shp4" d="M175.9,257.15h301.5c6.8,0 12.3,-5.5 12.3,-12.3c0,-6.8 -5.5,-12.3 -12.3,-12.3h-301.5c-6.8,0 -12.3,5.5 -12.3,12.3c0,6.8 5.5,12.3 12.3,12.3z" />
			<path id="Layer" class="shp5" d="M175.9,419.95h301.5c6.8,0 12.3,-5.5 12.3,-12.3c0,-6.8 -5.5,-12.3 -12.3,-12.3h-301.5c-6.8,0 -12.3,5.5 -12.3,12.3c0,6.8 5.5,12.3 12.3,12.3z" />
		</g>
	</g>
	<g id="Layer">
	</g>
	<g id="Layer">
	</g>
	<g id="Layer">
	</g>
	<g id="Layer">
	</g>
	<g id="Layer">
	</g>
	<g id="Layer">
	</g>
	<g id="Layer">
	</g>
	<g id="Layer">
	</g>
	<g id="Layer">
	</g>
	<g id="Layer">
	</g>
	<g id="Layer">
	</g>
	<g id="Layer">
	</g>
	<g id="Layer">
	</g>
	<g id="Layer">
	</g>
	<g id="Layer">
	</g>
</svg>