<?xml version="1.0"?>
<svg xmlns="http://www.w3.org/2000/svg" height="512px" viewBox="1 -47 511.99998 511" width="512px"><path d="m352 224.5h-80v-80c0-8.835938-7.164062-16-16-16s-16 7.164062-16 16v80h-80c-8.835938 0-16 7.164062-16 16s7.164062 16 16 16h80v80c0 8.835938 7.164062 16 16 16s16-7.164062 16-16v-80h80c8.835938 0 16-7.164062 16-16s-7.164062-16-16-16zm0 0" fill="#696969"/><path d="m464 64.5h-199.441406c-.640625-.96875-1.386719-1.863281-2.222656-2.671875l-54.625-52.398437c-5.929688-5.734376-13.859376-8.933594-22.109376-8.929688h-137.601562c-26.511719 0-48 21.492188-48 48v320c0 26.511719 21.488281 48 48 48h416c26.511719 0 48-21.488281 48-48v-256c0-26.507812-21.492188-48-48-48zm16 304c0 8.835938-7.164062 16-16 16h-416c-8.835938 0-16-7.164062-16-16v-320c0-8.835938 7.164062-16 16-16h137.601562l53.550782 51.410156c6.046875 7.925782 15.4375 12.578125 25.40625 12.589844h199.441406c8.835938 0 16 7.164062 16 16zm0 0" fill="#696969"/></svg>
