<svg xmlns="http://www.w3.org/2000/svg" viewBox="0 0 613 613" width="613" height="613">
	<style>
		tspan { white-space:pre }
		.shp0 { opacity: 0.62;fill: #000000 } 
	</style>
	<path id="Layer" class="shp0" d="M590.93 517.49L337.79 517.49C326.15 517.49 316.7 526.94 316.7 538.61C316.7 550.27 326.15 559.72 337.79 559.72L590.93 559.11C602.57 559.11 612.02 550.27 612.02 538.61C612.02 526.94 602.59 517.49 590.93 517.49ZM295.6 52.88L590.93 52.84C602.57 52.84 612.02 43.43 612.02 31.76C612.02 20.1 602.57 10.65 590.93 10.65L295.6 10.65C283.96 10.65 274.51 20.1 274.51 31.76C274.51 43.43 283.96 52.88 295.6 52.88ZM331.19 396.75C322.92 388.43 309.5 388.43 301.23 396.75L190.13 524.6L190.13 10.65L147.94 10.65L147.94 525.36L36.16 396.75C27.89 388.43 14.47 388.43 6.2 396.75C-2.07 405.06 -2.07 418.51 6.2 426.81L152.64 595.33C157.05 599.76 162.91 601.64 168.67 601.34C174.45 601.64 180.3 599.76 184.7 595.33L331.14 426.81C339.46 418.51 339.46 405.06 331.19 396.75ZM590.93 137.36L295.6 137.36C283.96 137.36 274.51 146.81 274.51 158.48C274.51 170.15 283.96 179.41 295.6 179.41L590.93 179.41C602.57 179.41 612.02 170.15 612.02 158.48C612.02 146.81 602.59 137.36 590.93 137.36ZM590.93 264.06L295.6 264.06C283.96 264.06 274.51 273.51 274.51 285.18C274.51 296.84 283.96 305.95 295.6 305.95L590.93 306.29C602.57 306.29 612.02 296.84 612.02 285.18C612.02 273.53 602.59 264.06 590.93 264.06ZM590.93 390.77L422.17 390.77C410.52 390.77 401.07 400.22 401.07 411.89C401.07 423.56 410.52 432.54 422.17 432.54L590.93 432.54C602.57 432.54 612.02 423.56 612.02 411.89C612.02 400.23 602.59 390.77 590.93 390.77Z" />
</svg>